<svg id="visual" viewBox="0 0 900 450" width="900" height="450" xmlns="http://www.w3.org/2000/svg" xmlns:xlink="http://www.w3.org/1999/xlink" version="1.1"><g transform="translate(460.9305222083482 220.70775183878555)"><path d="M41.8 -54.3C53.4 -40 61.7 -26.2 64.4 -11.3C67.1 3.6 64.3 19.6 58.3 37.1C52.3 54.7 43.1 73.9 26.7 84.7C10.4 95.5 -13.1 98 -35 91.9C-56.9 85.8 -77.2 71 -84.2 51.9C-91.2 32.9 -85 9.5 -78.6 -11.6C-72.2 -32.8 -65.7 -51.6 -52.6 -65.6C-39.4 -79.7 -19.7 -88.8 -2.3 -86.1C15.1 -83.3 30.1 -68.6 41.8 -54.3" fill="#1c7ed6"></path></g></svg>