<svg id="visual" viewBox="0 0 900 450" width="900" height="450" xmlns="http://www.w3.org/2000/svg" xmlns:xlink="http://www.w3.org/1999/xlink" version="1.1"><g transform="translate(459.06045556200894 213.6933683151973)"><path d="M50.7 -57.6C65 -48.4 75.3 -31.8 77.6 -14.3C79.9 3.1 74.2 21.3 65 37.8C55.8 54.2 43.1 68.9 25.7 78.9C8.2 89 -14 94.3 -31.9 87.8C-49.9 81.2 -63.5 62.9 -75.9 43C-88.3 23.2 -99.6 1.8 -95.3 -15.8C-91 -33.5 -71.2 -47.4 -52.7 -55.8C-34.3 -64.3 -17.1 -67.3 0.5 -67.9C18.2 -68.6 36.4 -66.9 50.7 -57.6" fill="#1c7ed6"></path></g></svg>